<svg xmlns="http://www.w3.org/2000/svg" viewBox="0 0 512 512" width="512" height="512">
  <rect x="56" y="56" width="400" height="400" rx="80" ry="80" fill="#1e1e2e"/>
  <g transform="translate(96, 234.42) scale(0.9867)" fill="#ffffff">
    <!-- D -->
    <path d="M227.776 .223202 L208.466 .223202 C208.466 .223202 208.144 .242203 208.144 .543205 L208.144 43.2522 C208.144 43.5952 208.296 43.6792 208.649 43.6792 L227.776 43.6792 C239.464 43.6792 246.724 35.0992 246.724 21.1912 C246.724 9.8292 238.224 .223202 227.776 .223202Z M227.776 39.4012 L212.865 39.4012 L212.865 4.5652 L227.776 4.5652 C235.523 4.5652 242.068 12.3422 242.068 21.1912 C242.068 25.4762 241.037 39.4012 227.776 39.4012Z"/>
    <!-- S -->
    <path d="M22.066 19.6919 L13.176 19.6919 C7.986 19.6919 4.675 15.1849 4.675 12.0839 C4.675 8.9189 7.312 4.5499 13.176 4.5499 L32.163 4.5499 L32.163 4.5419 L32.273 4.5419 C32.516 4.5419 32.713 4.3599 32.713 4.1379 L32.713 .567902 C32.713 .344902 32.516 .163902 32.273 .163902 L13.176 .165901 C4.929 .165901 0 6.2269 0 12.0839 C0 17.7139 5.411 23.9869 13.176 23.9869 L22.066 23.9869 C27.242 23.9869 30.106 28.4879 30.106 31.5989 C30.106 34.6649 27.963 39.4129 22.066 39.4129 L1.551 39.4129 L1.539 39.4129 L1.539 39.4149 C1.303 39.4209 1.111 39.5979 1.111 39.8169 L1.111 43.3009 C1.111 43.5199 1.303 43.6949 1.539 43.7029 L1.539 43.7079 L22.066 43.7079 C30.323 43.7079 34.778 37.3789 34.778 31.5989 C34.778 28.8899 33.538 25.9459 31.46 23.7219 C29.029 21.1229 25.693 19.6919 22.066 19.6919Z"/>
    <!-- A -->
    <path d="M117.651 .186501 C117.651 .186501 117.64 .0965042 117.529 .0855026 C117.477 .0805016 110.714 .0805016 110.662 .0855026 C110.553 .0965042 110.542 .186501 110.542 .186501 L97.9455 43.5205 C97.9455 43.5205 97.8855 43.6795 98.0535 43.6795 C98.7265 43.6795 102.502 43.6805 102.601 43.6795 C102.71 43.6775 102.751 43.5525 102.751 43.5525 L114.096 4.5305 L125.442 43.5965 C125.442 43.5965 125.481 43.7235 125.592 43.7245 L130.126 43.7245 C130.296 43.7245 130.246 43.5635 130.246 43.5635 L117.651 .186501Z"/>
    <!-- N -->
    <path d="M184.568 .0708008 L180.666 .0708008 C180.423 .0708008 180.226 .251804 180.226 .474804 L180.226 .591805 L180.22 .591805 L180.22 36.2808 C180.22 36.2808 157.275 .330803 157.213 .242802 C157.152 .153801 157.043 .0998039 157.043 .0998039 L149.78 .0998039 C149.78 .0998039 149.603 .118801 149.603 .319801 L149.603 43.3278 C149.603 43.5508 149.798 43.7318 150.041 43.7318 L153.882 43.7318 C154.126 43.7318 154.323 43.5508 154.323 43.3258 L154.323 43.0828 L154.323 4.3788 L154.315 4.1188 L179.396 43.6658 C179.396 43.6658 179.46 43.7248 179.511 43.7248 L184.738 43.7248 C185.016 43.7248 185.005 43.5088 185.005 43.5088 L185.006 .474804 C185.006 .251804 184.811 .0708008 184.568 .0708008Z"/>
    <!-- I -->
    <path d="M269.846 .479 C269.846 .256001 269.649 .0750008 269.406 .0750008 L265.637 .0750008 C265.392 .0750008 265.197 .256001 265.197 .479 L265.197 .947002 L265.189 .947002 L265.189 42.922 L265.197 42.922 L265.197 43.321 C265.197 43.545 265.392 43.727 265.637 43.727 L269.406 43.727 C269.649 43.727 269.846 43.545 269.846 43.321 L269.846 42.922 L269.846 .947002 L269.846 .479Z"/>
    <!-- T -->
    <path d="M323.861 0 L288.061 0 C287.818 0 287.62 .181004 287.62 .404003 L287.62 3.867 C287.62 4.092 287.818 4.272 288.061 4.272 L303.637 4.272 L303.637 43.26 C303.637 43.485 303.833 43.666 304.076 43.666 L307.846 43.666 C308.089 43.666 308.287 43.485 308.287 43.26 L308.287 4.272 L323.861 4.272 C324.104 4.272 324.301 4.092 324.301 3.867 L324.301 .404003 C324.301 .181004 324.104 0 323.861 0Z"/>
    <!-- C -->
    <path d="M82.9733 39.4278 L65.1503 39.4288 C58.7883 39.4288 52.3723 33.9298 52.3723 22.0528 C52.3723 10.0858 59.9963 4.5118 65.1503 4.5118 L82.6533 4.5118 L82.7543 4.5118 C82.9953 4.5118 83.1923 4.3308 83.1923 4.1078 L83.1923 .642803 C83.1923 .419804 82.9953 .238804 82.7543 .238804 L82.6533 .238804 L82.6533 .233803 L65.1503 .233803 C57.9103 .233803 47.7153 7.0028 47.7153 22.0528 C47.7153 36.8858 56.4713 43.7078 65.1503 43.7078 L82.8743 43.7078 L82.8743 43.7018 L82.9733 43.7018 C83.2163 43.7018 83.4133 43.5218 83.4133 43.2988 L83.4133 39.8318 C83.4133 39.6088 83.2163 39.4278 82.9733 39.4278Z"/>
  </g>
</svg>
